<?xml version="1.0"?>
<svg xmlns="http://www.w3.org/2000/svg" height="65px" viewBox="0 -12 496 496" width="65px"><path d="m80 448v16h-80v-216h80zm0 0" style={{fill:"#656d78"}}/><path d="m304 320 154.558594-23.511719c1.761718-.320312 3.601562-.488281 5.441406-.488281 17.679688 0 32 14.320312 32 32 0 11.839844-6.398438 22.167969-16 27.6875l-216 116.3125-184-24v-184h72l125.519531 24.488281c15.039063 2.558594 26.480469 15.679688 26.480469 31.511719zm0 0" style={{fill:"#eac6bb"}}/><path d="m479.710938 300.28125c-1.335938 10.015625-7.285157 18.558594-15.710938 23.40625l-210.328125 109.167969-173.671875-23.496094v38.640625l184 24 216-116.3125c9.601562-5.519531 16-15.839844 16-27.6875 0-11.9375-6.601562-22.214844-16.289062-27.71875zm0 0" style={{fill:"#d3b1a9"}}/><path d="m40.230469 448c-4.414063 0-8.03125-3.574219-8.03125-8s3.535156-8 7.953125-8h.078125c4.425781 0 8 3.574219 8 8s-3.574219 8-8 8zm0 0" style={{fill:"#ffce54"}}/><path d="m319.792969 317.601562-15.792969 2.398438c0 17.671875-14.328125 32-32 32-.902344 0-1.808594-.070312-2.695312-.144531-.015626-.007813-.023438-.015625-.039063-.015625l-100.640625-7.824219c-4.378906-.28125-8.25 2.960937-8.601562 7.359375-.335938 4.410156 2.953124 8.25 7.351562 8.59375l99.882812 7.757812v.035157c1.574219.160156 3.175782.238281 4.742188.238281 26.472656 0 48-21.527344 48-48 0-.824219-.167969-1.59375-.207031-2.398438zm0 0" style={{fill:"#d3b1a9"}}/><path d="m392 100c0 42.480469-26.558594 78.878906-64 93.28125-11.199219 4.320312-23.28125 6.71875-36 6.71875s-24.800781-2.398438-36-6.71875c-37.441406-14.402344-64-50.808594-64-93.28125 0-55.199219 44.800781-100 100-100s100 44.800781 100 100zm0 0" style={{fill:"#ffce54"}}/><path d="m328 193.28125c-11.199219 4.320312-23.28125 6.71875-36 6.71875s-24.800781-2.398438-36-6.71875c-37.441406-14.402344-64-50.808594-64-93.28125v32c0 42.480469 26.558594 78.878906 64 93.28125 11.199219 4.320312 23.28125 6.71875 36 6.71875s24.800781-2.398438 36-6.71875c37.441406-14.402344 64-50.808594 64-93.28125v-32c0 42.480469-26.558594 78.878906-64 93.28125zm0 0" style={{fill:"#f6bb42"}}/><g fill="#edab37"><path d="m248 189.753906v32c2.609375 1.277344 5.265625 2.476563 8 3.527344 2.617188 1.007812 5.289062 1.886719 8 2.6875v-32c-2.710938-.800781-5.382812-1.679688-8-2.6875-2.734375-1.058594-5.390625-2.25-8-3.527344zm0 0"/><path d="m320 195.96875v32c2.710938-.800781 5.382812-1.679688 8-2.6875 2.734375-1.058594 5.390625-2.25 8-3.527344v-32c-2.609375 1.277344-5.265625 2.476563-8 3.527344-2.617188 1.007812-5.289062 1.886719-8 2.6875zm0 0"/><path d="m320 128h-8v-80c0-.183594-.097656-.351562-.113281-.535156-.03125-.527344-.167969-1.03125-.3125-1.554688-.148438-.527344-.285157-1.03125-.535157-1.511718-.085937-.167969-.085937-.34375-.175781-.503907-.167969-.269531-.429687-.4375-.625-.6875-.335937-.4375-.679687-.839843-1.09375-1.199219-.410156-.34375-.824219-.601562-1.273437-.855468-.429688-.242188-.847656-.464844-1.335938-.625-.535156-.175782-1.070312-.261719-1.640625-.328125-.308593-.054688-.582031-.199219-.894531-.199219-.183594 0-.34375.097656-.519531.105469-.535157.039062-1.046875.167969-1.578125.320312-.519532.148438-1.03125.285157-1.503906.535157-.167969.085937-.34375.085937-.503907.175781l-40 24c-3.789062 2.269531-5.015625 7.183593-2.742187 10.976562 1.503906 2.503907 4.152344 3.878907 6.863281 3.878907 1.398437 0 2.824219-.367188 4.113281-1.144532l3.871094-2.320312v51.472656h-8c-4.425781 0-8 3.574219-8 8s3.574219 8 8 8h56c4.425781 0 8-3.574219 8-8s-3.574219-8-8-8zm-32-61.070312 8-4.800782v65.871094h-8zm0 0"/></g></svg>
